name Run_50002_GRF.mot
datacolumns 19
datarows 20
range 2.246 2.265
endheader
time	     ground_force_vx	     ground_force_vy	     ground_force_vz	     ground_force_px	     ground_force_py	     ground_force_pz	   l_ground_force_vx	   l_ground_force_vy	   l_ground_force_vz	   l_ground_force_px	   l_ground_force_py	   l_ground_force_pz	     ground_torque_x	     ground_torque_y	     ground_torque_z	   l_ground_torque_x	   l_ground_torque_y	   l_ground_torque_z	
2.246	          0.00000000	          0.00000000	          0.00000000	          0.00000000	          0.00000000	          0.00000000	        167.64735400	       1073.06640600	        -61.00735500	          0.81695300	          0.00000000	         -0.34004400	          0.00000000	          0.00000000	          0.00000000	         -0.00000000	          7.11198000	         -0.00000000	
2.247	          0.00000000	          0.00000000	          0.00000000	          0.00000000	          0.00000000	          0.00000000	        169.63452100	       1048.84289600	        -60.54784000	          0.81301800	          0.00000000	         -0.33989700	          0.00000000	          0.00000000	          0.00000000	         -0.00000000	          7.11042500	         -0.00000000	
2.248	          0.00000000	          0.00000000	          0.00000000	          0.00000000	          0.00000000	          0.00000000	        171.49638400	       1024.32263200	        -60.06546400	          0.80899700	          0.00000000	         -0.33976500	          0.00000000	          0.00000000	          0.00000000	         -0.00000000	          7.10342100	         -0.00000000	
2.249	          0.00000000	          0.00000000	          0.00000000	          0.00000000	          0.00000000	          0.00000000	        173.23207100	        999.52819800	        -59.56188600	          0.80488400	          0.00000000	         -0.33965000	          0.00000000	          0.00000000	          0.00000000	         -0.00000000	          7.09091900	         -0.00000000	
2.25	          0.00000000	          0.00000000	          0.00000000	          0.00000000	          0.00000000	          0.00000000	        174.83970600	        974.48681600	        -59.03853200	          0.80067700	          0.00000000	         -0.33955400	          0.00000000	          0.00000000	          0.00000000	         -0.00000000	          7.07288500	         -0.00000000	
2.251	          0.00000000	          0.00000000	          0.00000000	          0.00000000	          0.00000000	          0.00000000	        176.31608600	        949.23034700	        -58.49652500	          0.79637200	          0.00000000	         -0.33947800	          0.00000000	          0.00000000	          0.00000000	         -0.00000000	          7.04928900	         -0.00000000	
2.252	          0.00000000	          0.00000000	          0.00000000	          0.00000000	          0.00000000	          0.00000000	        177.65647900	        923.79492200	        -57.93668000	          0.79197000	          0.00000000	         -0.33942500	          0.00000000	          0.00000000	          0.00000000	         -0.00000000	          7.02011400	         -0.00000000	
2.253	          0.00000000	          0.00000000	          0.00000000	          0.00000000	          0.00000000	          0.00000000	        178.85469100	        898.22082500	        -57.35947800	          0.78747100	          0.00000000	         -0.33939400	          0.00000000	          0.00000000	          0.00000000	         -0.00000000	          6.98535400	         -0.00000000	
2.254	          0.00000000	          0.00000000	          0.00000000	          0.00000000	          0.00000000	          0.00000000	        179.90307600	        872.55230700	        -56.76506800	          0.78287800	          0.00000000	         -0.33938700	          0.00000000	          0.00000000	          0.00000000	         -0.00000000	          6.94501400	         -0.00000000	
2.255	          0.00000000	          0.00000000	          0.00000000	          0.00000000	          0.00000000	          0.00000000	        180.79286200	        846.83703600	        -56.15324800	          0.77819500	          0.00000000	         -0.33940400	          0.00000000	          0.00000000	          0.00000000	         -0.00000000	          6.89910800	         -0.00000000	
2.256	          0.00000000	          0.00000000	          0.00000000	          0.00000000	          0.00000000	          0.00000000	        181.51437400	        821.12518300	        -55.52350600	          0.77342900	          0.00000000	         -0.33944600	          0.00000000	          0.00000000	          0.00000000	         -0.00000000	          6.84766600	         -0.00000000	
2.257	          0.00000000	          0.00000000	          0.00000000	          0.00000000	          0.00000000	          0.00000000	        182.05748000	        795.46899400	        -54.87501500	          0.76858800	          0.00000000	         -0.33951100	          0.00000000	          0.00000000	          0.00000000	         -0.00000000	          6.79072800	         -0.00000000	
2.258	          0.00000000	          0.00000000	          0.00000000	          0.00000000	          0.00000000	          0.00000000	        182.41201800	        769.92169200	        -54.20668400	          0.76368300	          0.00000000	         -0.33959900	          0.00000000	          0.00000000	          0.00000000	         -0.00000000	          6.72834900	         -0.00000000	
2.259	          0.00000000	          0.00000000	          0.00000000	          0.00000000	          0.00000000	          0.00000000	        182.56814600	        744.53649900	        -53.51717400	          0.75872600	          0.00000000	         -0.33971000	          0.00000000	          0.00000000	          0.00000000	         -0.00000000	          6.66059700	         -0.00000000	
2.26	          0.00000000	          0.00000000	          0.00000000	          0.00000000	          0.00000000	          0.00000000	        182.51683000	        719.36590600	        -52.80497000	          0.75373100	          0.00000000	         -0.33984100	          0.00000000	          0.00000000	          0.00000000	         -0.00000000	          6.58755300	         -0.00000000	
2.261	          0.00000000	          0.00000000	          0.00000000	          0.00000000	          0.00000000	          0.00000000	        182.25007600	        694.46020500	        -52.06842000	          0.74871400	          0.00000000	         -0.33999100	          0.00000000	          0.00000000	          0.00000000	         -0.00000000	          6.50931400	         -0.00000000	
2.262	          0.00000000	          0.00000000	          0.00000000	          0.00000000	          0.00000000	          0.00000000	        181.76127600	        669.86700400	        -51.30580100	          0.74369100	          0.00000000	         -0.34015800	          0.00000000	          0.00000000	          0.00000000	         -0.00000000	          6.42599000	         -0.00000000	
2.263	          0.00000000	          0.00000000	          0.00000000	          0.00000000	          0.00000000	          0.00000000	        181.04528800	        645.63024900	        -50.51537300	          0.73868000	          0.00000000	         -0.34033900	          0.00000000	          0.00000000	          0.00000000	         -0.00000000	          6.33770700	         -0.00000000	
2.264	          0.00000000	          0.00000000	          0.00000000	          0.00000000	          0.00000000	          0.00000000	        180.09861800	        621.78936800	        -49.69545700	          0.73369900	          0.00000000	         -0.34053300	          0.00000000	          0.00000000	          0.00000000	         -0.00000000	          6.24460600	         -0.00000000	
2.265	          0.00000000	          0.00000000	          0.00000000	          0.00000000	          0.00000000	          0.00000000	        178.91937300	        598.37927200	        -48.84450900	          0.72876700	          0.00000000	         -0.34073700	          0.00000000	          0.00000000	          0.00000000	         -0.00000000	          6.14684400	         -0.00000000	
